<svg xmlns="http://www.w3.org/2000/svg" viewBox="0 0 1800 1200" preserveAspectRatio="xMidYMid slice">
  <!-- Empress Health report hero — 02 Domain Scores
       Brand placeholder. Replace with photography when art assets land.
       Filename slug: 02-domain-scores.svg -->
  <defs>
    <linearGradient id="bg" x1="0" y1="0" x2="1" y2="1">
      <stop offset="0%" stop-color="#F4E5C8"/>
      <stop offset="100%" stop-color="#EBD9B3"/>
    </linearGradient>
    <linearGradient id="card" x1="0" y1="0" x2="0" y2="1">
      <stop offset="0%" stop-color="#fffaf1"/>
      <stop offset="100%" stop-color="#fbf2dc"/>
    </linearGradient>
  </defs>
  <rect width="1800" height="1200" fill="url(#bg)"/>
  <g transform="translate(180 200)">
    <!-- 10 domain cards in a 5x2 grid; each card mimics the domain-score-card layout -->
    <g font-family="'Poppins', system-ui, sans-serif">
    <!-- Row 1 -->
    <g transform="translate(0 0)">
      <rect width="260" height="320" rx="18" fill="url(#card)" stroke="#3f1449" stroke-opacity="0.10" stroke-width="2"/>
      <text x="30" y="80" font-size="64" font-weight="700" fill="#C0392B">87</text>
      <text x="30" y="118" font-size="14" font-weight="700" letter-spacing="2" fill="#3f1449">PRIORITY</text>
      <rect x="30" y="190" width="200" height="6" rx="3" fill="#F4D2D5"/>
      <rect x="30" y="190" width="60" height="6" rx="3" fill="#C0392B"/>
      <circle cx="200" cy="262" r="22" fill="#D4A017" fill-opacity="0.18"/>
      <circle cx="200" cy="262" r="12" fill="#D4A017"/>
    </g>
    <g transform="translate(300 0)">
      <rect width="260" height="320" rx="18" fill="url(#card)" stroke="#3f1449" stroke-opacity="0.10" stroke-width="2"/>
      <text x="30" y="80" font-size="64" font-weight="700" fill="#C0392B">62</text>
      <text x="30" y="118" font-size="14" font-weight="700" letter-spacing="2" fill="#3f1449">MODERATE</text>
      <rect x="30" y="190" width="200" height="6" rx="3" fill="#F4D2D5"/>
      <rect x="30" y="190" width="125" height="6" rx="3" fill="#D4A017"/>
      <g transform="translate(190 240) rotate(15)">
        <rect width="32" height="14" rx="6" fill="#3f1449" fill-opacity="0.45"/>
        <rect x="3" y="3" width="8" height="8" rx="2" fill="#fffaf1"/>
      </g>
    </g>
    <g transform="translate(600 0)">
      <rect width="260" height="320" rx="18" fill="url(#card)" stroke="#3f1449" stroke-opacity="0.10" stroke-width="2"/>
      <text x="30" y="80" font-size="64" font-weight="700" fill="#C0392B">15</text>
      <text x="30" y="118" font-size="14" font-weight="700" letter-spacing="2" fill="#3f1449">PRIORITY</text>
      <rect x="30" y="190" width="200" height="6" rx="3" fill="#F4D2D5"/>
      <rect x="30" y="190" width="30" height="6" rx="3" fill="#C0392B"/>
      <path d="M180 240 q20 -20 40 0 q-20 20 -40 0 z" fill="#D4A017" opacity="0.6"/>
      <circle cx="200" cy="270" r="6" fill="#3f1449"/>
    </g>
    <g transform="translate(900 0)">
      <rect width="260" height="320" rx="18" fill="url(#card)" stroke="#3f1449" stroke-opacity="0.10" stroke-width="2"/>
      <text x="30" y="80" font-size="64" font-weight="700" fill="#27AE60">78</text>
      <text x="30" y="118" font-size="14" font-weight="700" letter-spacing="2" fill="#27AE60">STRONG</text>
      <rect x="30" y="190" width="200" height="6" rx="3" fill="#D6E7DC"/>
      <rect x="30" y="190" width="156" height="6" rx="3" fill="#27AE60"/>
      <circle cx="200" cy="260" r="20" fill="none" stroke="#3f1449" stroke-width="3"/>
      <path d="M188 260 l8 8 l14 -16" fill="none" stroke="#27AE60" stroke-width="4" stroke-linecap="round"/>
    </g>
    <g transform="translate(1200 0)">
      <rect width="260" height="320" rx="18" fill="url(#card)" stroke="#3f1449" stroke-opacity="0.10" stroke-width="2"/>
      <text x="30" y="80" font-size="64" font-weight="700" fill="#C0392B">9</text>
      <text x="30" y="118" font-size="14" font-weight="700" letter-spacing="2" fill="#3f1449">PRIORITY</text>
      <rect x="30" y="190" width="200" height="6" rx="3" fill="#F4D2D5"/>
      <rect x="30" y="190" width="18" height="6" rx="3" fill="#C0392B"/>
      <path d="M180 250 q15 -25 30 0 t30 0" fill="none" stroke="#3f1449" stroke-width="3" stroke-linecap="round"/>
    </g>
    <!-- Row 2 -->
    <g transform="translate(0 380)">
      <rect width="260" height="320" rx="18" fill="url(#card)" stroke="#3f1449" stroke-opacity="0.10" stroke-width="2"/>
      <text x="30" y="80" font-size="64" font-weight="700" fill="#C0392B">22</text>
      <text x="30" y="118" font-size="14" font-weight="700" letter-spacing="2" fill="#3f1449">PRIORITY</text>
      <rect x="30" y="190" width="200" height="6" rx="3" fill="#F4D2D5"/>
      <rect x="30" y="190" width="44" height="6" rx="3" fill="#C0392B"/>
      <g transform="translate(180 235)">
        <path d="M0 30 q15 -30 30 -15 q15 -15 30 15 q-15 25 -30 5 q-15 20 -30 -5 z" fill="#D4A017" fill-opacity="0.55"/>
      </g>
    </g>
    <g transform="translate(300 380)">
      <rect width="260" height="320" rx="18" fill="url(#card)" stroke="#3f1449" stroke-opacity="0.10" stroke-width="2"/>
      <text x="30" y="80" font-size="64" font-weight="700" fill="#C0392B">7</text>
      <text x="30" y="118" font-size="14" font-weight="700" letter-spacing="2" fill="#3f1449">PRIORITY</text>
      <rect x="30" y="190" width="200" height="6" rx="3" fill="#F4D2D5"/>
      <rect x="30" y="190" width="14" height="6" rx="3" fill="#C0392B"/>
      <circle cx="200" cy="262" r="22" fill="none" stroke="#3f1449" stroke-width="3"/>
      <line x1="200" y1="240" x2="200" y2="262" stroke="#3f1449" stroke-width="3" stroke-linecap="round"/>
      <line x1="200" y1="262" x2="216" y2="270" stroke="#3f1449" stroke-width="3" stroke-linecap="round"/>
    </g>
    <g transform="translate(600 380)">
      <rect width="260" height="320" rx="18" fill="url(#card)" stroke="#3f1449" stroke-opacity="0.10" stroke-width="2"/>
      <text x="30" y="80" font-size="64" font-weight="700" fill="#C0392B">19</text>
      <text x="30" y="118" font-size="14" font-weight="700" letter-spacing="2" fill="#3f1449">PRIORITY</text>
      <rect x="30" y="190" width="200" height="6" rx="3" fill="#F4D2D5"/>
      <rect x="30" y="190" width="38" height="6" rx="3" fill="#C0392B"/>
      <path d="M178 270 q12 -30 24 0 m4 -4 q12 -30 24 0" fill="none" stroke="#3f1449" stroke-width="3" stroke-linecap="round"/>
    </g>
    <g transform="translate(900 380)">
      <rect width="260" height="320" rx="18" fill="url(#card)" stroke="#3f1449" stroke-opacity="0.10" stroke-width="2"/>
      <text x="30" y="80" font-size="64" font-weight="700" fill="#27AE60">82</text>
      <text x="30" y="118" font-size="14" font-weight="700" letter-spacing="2" fill="#27AE60">STRONG</text>
      <rect x="30" y="190" width="200" height="6" rx="3" fill="#D6E7DC"/>
      <rect x="30" y="190" width="164" height="6" rx="3" fill="#27AE60"/>
      <path d="M180 260 c0 -10 20 -10 20 0 c0 -10 20 -10 20 0 c0 10 -20 26 -20 26 c0 0 -20 -16 -20 -26 z" fill="#C0392B" opacity="0.45"/>
    </g>
    <g transform="translate(1200 380)">
      <rect width="260" height="320" rx="18" fill="url(#card)" stroke="#3f1449" stroke-opacity="0.10" stroke-width="2"/>
      <text x="30" y="80" font-size="64" font-weight="700" fill="#C0392B">17</text>
      <text x="30" y="118" font-size="14" font-weight="700" letter-spacing="2" fill="#3f1449">PRIORITY</text>
      <rect x="30" y="190" width="200" height="6" rx="3" fill="#F4D2D5"/>
      <rect x="30" y="190" width="34" height="6" rx="3" fill="#C0392B"/>
      <path d="M188 258 q10 -16 22 -6 q12 -10 22 6 q-22 28 -44 0 z" fill="#27AE60" opacity="0.5"/>
    </g>
    </g>
  </g>
  <!-- Tag bug in corner so the placeholder reads as intentional -->
  <g transform="translate(140 1080)" font-family="'Poppins', system-ui, sans-serif">
    <text font-size="22" font-weight="700" letter-spacing="4" fill="#3f1449" fill-opacity="0.45">EMPRESS HEALTH · 10 DOMAIN SCORES</text>
  </g>
</svg>
